<svg width="100" height="100" viewBox="0 0 100 100" fill="none" xmlns="http://www.w3.org/2000/svg">
<circle cx="50" cy="50" r="50" fill="white"/>
<circle cx="50" cy="50" r="49.5" stroke="#7C8993" stroke-opacity="0.48"/>
<mask id="mask0_202_9" style="mask-type:luminance" maskUnits="userSpaceOnUse" x="0" y="0" width="100" height="100">
<circle cx="50" cy="50" r="49.5" fill="white" stroke="white"/>
</mask>
<g mask="url(#mask0_202_9)">
<g filter="url(#filter0_d_202_9)">
<path d="M59.5613 31.94C56.9373 39.1013 51.908 49.652 44.4733 63.592C44.4733 63.592 49.6666 63.3733 60.0533 62.936C60.272 62.936 60.3813 62.9907 60.3813 63.1C60.3813 63.3733 59.944 63.8653 59.0693 64.576C58.14 65.232 57.484 65.6693 57.1013 65.888C55.844 66.544 51.0333 66.872 42.6693 66.872C38.6786 74.3067 34.77 81.3313 30.9433 87.946C27.1166 94.506 24.6293 98.5787 23.4813 100.164C22.6066 101.257 21.732 101.804 20.8573 101.804C18.2333 102.132 15.5546 102.296 12.8213 102.296H12.1653C11.8373 102.296 11.6733 102.132 11.6733 101.804C11.6733 101.695 11.8646 101.585 12.2473 101.476C13.7233 100.929 14.8986 100 15.7733 98.688C21.9506 90.1053 28.5653 79.5547 35.6173 67.036C28.5106 67.036 23.7273 67.5827 21.2673 68.676C20.7753 68.8947 20.4473 69.004 20.2833 69.004C20.1193 69.004 20.0373 68.9493 20.0373 68.84C20.0373 67.9653 21.9506 66.708 25.7773 65.068C26.324 64.8493 27.6086 64.576 29.6313 64.248C31.7086 63.92 34.3053 63.756 37.4213 63.756C44.9106 49.9253 49.94 39.3747 52.5093 32.104C50.9786 32.104 48.382 32.2133 44.7193 32.432C41.1113 32.596 37.9133 32.8967 35.1253 33.334C32.392 33.7713 30.3693 34.236 29.0573 34.728C27.8 35.1653 26.7886 35.6027 26.0233 36.04C25.3126 36.4773 24.8206 36.8327 24.5473 37.106C24.274 37.3793 24.0826 37.516 23.9733 37.516C23.6453 37.516 23.4813 37.352 23.4813 37.024C23.4813 36.696 24.0826 35.9307 25.2853 34.728C27.5813 32.432 30.8066 30.9013 34.9613 30.136C39.116 29.316 45.348 28.824 53.6573 28.66C54.4226 26.2 54.8053 24.068 54.8053 22.264C54.8053 15.8133 52.1266 12.588 46.7693 12.588C45.2386 12.588 44.0086 12.752 43.0793 13.08C42.2046 13.408 41.5486 13.654 41.1113 13.818C40.674 13.982 40.2093 14.2553 39.7173 14.638C39.28 14.966 38.952 15.212 38.7333 15.376C38.624 15.4853 38.3506 15.7313 37.9133 16.114L37.2573 16.688C36.492 17.4533 36.0546 17.836 35.9453 17.836C35.6173 17.836 35.4533 17.7267 35.4533 17.508C35.4533 17.2893 35.8906 16.7427 36.7653 15.868C40.264 12.588 44.036 10.948 48.0813 10.948C57.156 10.948 61.6933 14.9933 61.6933 23.084C61.6933 24.9427 61.42 26.7467 60.8733 28.496C70.44 28.332 79.5693 27.7307 88.2613 26.692C89.792 26.4733 91.0493 26.364 92.0333 26.364H92.6893C93.3453 26.364 93.6733 26.4733 93.6733 26.692C93.6733 26.856 93.5093 27.02 93.1813 27.184C90.5026 28.988 86.5393 30.1907 81.2913 30.792C76.0433 31.3387 68.8 31.7213 59.5613 31.94Z" fill="#7C8993"/>
</g>
</g>
<defs>
<filter id="filter0_d_202_9" x="7.67334" y="10.948" width="90" height="99.348" filterUnits="userSpaceOnUse" color-interpolation-filters="sRGB">
<feFlood flood-opacity="0" result="BackgroundImageFix"/>
<feColorMatrix in="SourceAlpha" type="matrix" values="0 0 0 0 0 0 0 0 0 0 0 0 0 0 0 0 0 0 127 0" result="hardAlpha"/>
<feOffset dy="4"/>
<feGaussianBlur stdDeviation="2"/>
<feComposite in2="hardAlpha" operator="out"/>
<feColorMatrix type="matrix" values="0 0 0 0 0 0 0 0 0 0 0 0 0 0 0 0 0 0 0.25 0"/>
<feBlend mode="normal" in2="BackgroundImageFix" result="effect1_dropShadow_202_9"/>
<feBlend mode="normal" in="SourceGraphic" in2="effect1_dropShadow_202_9" result="shape"/>
</filter>
</defs>
</svg>
